<svg width="25" height="25" viewBox="0 0 25 25" fill="none" xmlns="http://www.w3.org/2000/svg">
<path fill-rule="evenodd" clip-rule="evenodd" d="M0 0.5C0 0.223846 0.223854 0 0.5 0H7L8.3145 1.31451C9.53165 1.1037 10.7647 0.998474 12 1C16.9915 1 21.2686 2.6514 23.0774 5H0.9226C1.58756 4.18204 2.40816 3.50409 3.3369 3.0054L2 1H0.5C0.223854 1 0 0.776154 0 0.5ZM23.666 9C23.8802 8.52859 23.9939 8.01776 24 7.5C23.9939 6.98224 23.8802 6.47141 23.666 6H0.334C-0.111313 6.95041 -0.111313 8.04959 0.334 9H23.666ZM12 14C16.9915 14 21.2686 12.3486 23.0774 10H0.9226C1.58756 10.818 2.40816 11.4959 3.3369 11.9946L2 14H0.5C0.223854 14 0 14.2238 0 14.5C0 14.7762 0.223854 15 0.5 15H7L8.3145 13.6855C9.53165 13.8963 10.7647 14.0015 12 14ZM4.2356 12.4495L3.2019 14H6.5858L7.1449 13.4409C6.14514 13.206 5.17074 12.874 4.2356 12.4495ZM12.5 15H16.5C16.7761 15 17 15.2238 17 15.5C17 15.7762 16.7761 16 16.5 16H12.5C12.2239 16 12 15.7762 12 15.5C12 15.2238 12.2239 15 12.5 15ZM4.2356 2.55051L3.2019 1H6.5858L7.1449 1.55899C6.14514 1.79391 5.17074 2.12598 4.2356 2.55051Z" transform="translate(1 5)" fill="#232323"/>
</svg>
