<svg width="25" height="25" viewBox="0 0 25 25" fill="none" xmlns="http://www.w3.org/2000/svg">
<path fill-rule="evenodd" clip-rule="evenodd" d="M23.5 0H1.5C0.671936 0.00088501 0.00088501 0.671936 0 1.5V17.5C0.00088501 18.3281 0.671936 18.9991 1.5 19H4L6.55 15.6C6.83328 15.2223 7.27786 15 7.75 15H17.25C17.7221 15 18.1667 15.2223 18.45 15.6L21 19H23.5C24.3281 18.9991 24.9991 18.3281 25 17.5V1.5C24.9991 0.671936 24.3281 0.00088501 23.5 0ZM4.5 13H2.5C2.22385 13 2 12.7762 2 12.5C2 12.2238 2.22385 12 2.5 12H4.5C4.77615 12 5 12.2238 5 12.5C5 12.7762 4.77615 13 4.5 13ZM2.5 9H4.5C4.77615 9 5 8.77615 5 8.5C5 8.22385 4.77615 8 4.5 8H2.5C2.22385 8 2 8.22385 2 8.5C2 8.77615 2.22385 9 2.5 9ZM4.5 5H2.5C2.22385 5 2 4.77615 2 4.5C2 4.22385 2.22385 4 2.5 4H4.5C4.77615 4 5 4.22385 5 4.5C5 4.77615 4.77615 5 4.5 5ZM17 13C17.5523 13 18 12.5523 18 12V5C18 4.44772 17.5523 4 17 4H8C7.44772 4 7 4.44772 7 5V12C7 12.5523 7.44772 13 8 13H17ZM22.5 13H20.5C20.2239 13 20 12.7762 20 12.5C20 12.2238 20.2239 12 20.5 12H22.5C22.7761 12 23 12.2238 23 12.5C23 12.7762 22.7761 13 22.5 13ZM20.5 9H22.5C22.7761 9 23 8.77615 23 8.5C23 8.22385 22.7761 8 22.5 8H20.5C20.2239 8 20 8.22385 20 8.5C20 8.77615 20.2239 9 20.5 9ZM22.5 5H20.5C20.2239 5 20 4.77615 20 4.5C20 4.22385 20.2239 4 20.5 4H22.5C22.7761 4 23 4.22385 23 4.5C23 4.77615 22.7761 5 22.5 5ZM19 18L17.65 16.2C17.5554 16.0744 17.4073 16.0003 17.25 16H7.75C7.5927 16.0003 7.44464 16.0744 7.35 16.2L6 18H19Z" transform="translate(0 3)" fill="#232323"/>
</svg>
