<svg width="25" height="25" viewBox="0 0 25 25" fill="none" xmlns="http://www.w3.org/2000/svg">
<path fill-rule="evenodd" clip-rule="evenodd" d="M23.5 19C24.3284 19 25 18.3284 25 17.5V1.5C25 0.67157 24.3284 0 23.5 0H1.5C0.67157 0 0 0.67157 0 1.5V17.5C0 18.3284 0.67157 19 1.5 19H2V20C2 20.5523 2.44772 21 3 21H5C5.55228 21 6 20.5523 6 20V19H19V20C19 20.5523 19.4477 21 20 21H22C22.5523 21 23 20.5523 23 20V19H23.5ZM19.9494 10H17.5C17.2239 10 17 9.77614 17 9.5C17 9.22386 17.2239 9 17.5 9H19.9494C19.6841 6.62679 17.6112 4.8741 15.2269 5.00697C12.8426 5.13985 10.9773 7.112 10.9773 9.5C10.9773 11.888 12.8426 13.8602 15.2269 13.993C17.6112 14.1259 19.6841 12.3732 19.9494 10ZM5 20V19H3V20H5ZM4.5 3C4.77615 3 5 3.22386 5 3.5V15.5C5 15.7761 4.77615 16 4.5 16C4.22385 16 4 15.7761 4 15.5V14H3.5C3.22385 14 3 13.7761 3 13.5C3 13.2239 3.22385 13 3.5 13H4V10H3.5C3.22385 10 3 9.77614 3 9.5C3 9.22386 3.22385 9 3.5 9H4V6H3.5C3.22385 6 3 5.77614 3 5.5C3 5.22386 3.22385 5 3.5 5H4V3.5C4 3.22386 4.22385 3 4.5 3ZM21 9.5C21 6.46243 18.5376 4 15.5 4C12.4624 4 10 6.46243 10 9.5C10 12.5376 12.4624 15 15.5 15C18.5376 15 21 12.5376 21 9.5ZM20 20V19H22V20H20Z" transform="translate(0 2)" fill="#232323"/>
</svg>
